<?xml version="1.0" encoding="UTF-8"?>
<svg width="366px" height="198px" viewBox="0 0 366 198" version="1.1" xmlns="http://www.w3.org/2000/svg" xmlns:xlink="http://www.w3.org/1999/xlink">
    <!-- Generator: Sketch 49.3 (51167) - http://www.bohemiancoding.com/sketch -->
    <title>Followers@2x</title>
    <desc>Created with Sketch.</desc>
    <defs>
        <rect id="path-1" x="0" y="0" width="270" height="102" rx="8"></rect>
        <filter x="-28.0%" y="-67.2%" width="155.9%" height="248.0%" filterUnits="objectBoundingBox" id="filter-2">
            <feOffset dx="0" dy="7" in="SourceAlpha" result="shadowOffsetOuter1"></feOffset>
            <feGaussianBlur stdDeviation="24" in="shadowOffsetOuter1" result="shadowBlurOuter1"></feGaussianBlur>
            <feColorMatrix values="0 0 0 0 0   0 0 0 0 0   0 0 0 0 0  0 0 0 0.1 0" type="matrix" in="shadowBlurOuter1"></feColorMatrix>
        </filter>
    </defs>
    <g id="Page-1" stroke="none" stroke-width="1" fill="none" fill-rule="evenodd">
        <g id="Group-7" transform="translate(-246.000000, -294.000000)">
            <g id="Followers" transform="translate(294.000000, 335.000000)">
                <g id="Rectangle-6">
                    <use fill="black" fill-opacity="1" filter="url(#filter-2)" xlink:href="#path-1"></use>
                    <use fill="#FFFFFF" fill-rule="evenodd" xlink:href="#path-1"></use>
                </g>
                <text id="Cheapest-Prices" font-family="Raleway-SemiBold, Raleway" font-size="18" font-weight="500" fill="#3E396B">
                    <tspan x="115" y="56">Cheapest Prices</tspan>
                </text>
                <g id="truck" transform="translate(21.000000, 27.000000)" fill-rule="nonzero">
                    <path d="M22.5,36 C21.988,36.0050011 21.4805,36.0985219 21,36.2765615 C23.3325,37.0902423 24.564,39.640309 23.7505,41.9733274 C23.301,43.2616137 22.2885,44.2748389 21,44.7239387 C21.4805,44.9014781 21.988,44.9949989 22.5,45 C24.9855,45 27,42.9850522 27,40.5 C27,38.0149478 24.9855,36 22.5,36 Z" id="Shape" fill="#E8E5FE"></path>
                    <path d="M52.5,36 C51.988,36.0050011 51.4805,36.0985219 51,36.2765615 C53.3325,37.0902423 54.564,39.640309 53.7505,41.9733274 C53.301,43.2616137 52.2885,44.2748389 51,44.7239387 C51.4805,44.9014781 51.988,44.9949989 52.5,45 C54.9855,45 57,42.9850522 57,40.5 C57,38.0149478 54.9855,36 52.5,36 Z" id="Shape" fill="#E8E5FE"></path>
                    <path d="M71.1215,17.1187481 L64.3185,10.3174509 C63.475,9.47341401 62.33,8.99889327 61.1365,8.99889327 L54,8.99889327 L54,4.49919662 C54,2.01458804 51.9855,0 49.5,0 L1.5,0 C0.6715,0 0,0.671529347 0,1.49956553 C0,2.32760172 0.6715,2.99913107 1.5,2.99913107 L7.5,2.99913107 C8.3285,2.99913107 9,3.67066042 9,4.4986966 C9,5.32673279 8.3285,5.99826214 7.5,5.99826214 L4.5,5.99826214 C3.6715,5.99826214 3,6.66979148 3,7.49782767 C3,8.32586386 3.6715,8.99739321 4.5,8.99739321 L7.5,8.99739321 C8.3285,8.99739321 9,9.66892255 9,10.4969587 C9,11.3249949 8.3285,11.9965243 7.5,11.9965243 C6.6715,11.9965243 6,12.6680536 6,13.4960898 C6,14.324626 6.6715,14.9956553 7.5,14.9956553 L9,14.9956553 L9,37.4926385 C9,39.9777471 11.0145,41.9918351 13.5,41.9918351 L15.15,41.9918351 C15.9745,46.0505125 19.933,48.6726271 23.9925,47.8485911 C26.944,47.2495649 29.2505,44.9429641 29.85,41.9918351 L45.1525,41.9918351 C45.98,46.0500125 49.941,48.6686269 53.9995,47.8415908 C56.946,47.2410645 59.249,44.9384639 59.85,41.9918351 L67.5,41.9918351 C69.9855,41.9918351 72,39.9772471 72,37.4926385 L72,19.2403408 C72,18.4443061 71.684,17.6812727 71.1215,17.1187481 Z M54,11.9985196 L61.136,11.9985244 C61.534,11.9975243 61.916,12.1555312 62.197,12.4380436 L69,19.2403408 L69,20.9974176 L54,20.9974176 L54,11.9985196 Z M22.5,44.9934663 C20.0145,44.9934663 18,42.9788783 18,40.4942697 C18,38.0096611 20.0145,35.9950731 22.5,35.9950731 C24.9855,35.9950731 27,38.0096611 27,40.4942697 C26.997,42.9778782 24.984,44.9909662 22.5,44.9934663 Z M45.15,38.9942041 L29.85,38.9942041 C29.0225,34.9360268 25.0615,32.3174123 21.003,33.1444485 C18.0565,33.7449747 15.7535,36.0475754 15.1525,38.9942041 L13.5,38.9942041 C12.672,38.9932041 12.001,38.3221748 12,37.4946386 L12,14.9976554 L16.5,14.9976554 C17.3285,14.9976554 18,14.3261261 18,13.4980899 C18,12.6695537 17.3285,11.9985244 16.5,11.9985244 L12,11.9985244 L12,8.99889327 L16.5,8.99889327 C17.3285,8.99889327 18,8.32736392 18,7.49932774 C18,6.67129155 17.3285,5.9997622 16.5,5.9997622 L12,5.9997622 L12,4.49919662 C12.001,3.67116044 12.672,3.00063113 13.5,2.99963109 L49.5,2.99963109 C50.328,3.00063113 50.999,3.67166046 51,4.49919662 L51,33.1449485 C48.055,33.7479749 45.754,36.0495754 45.1515,38.9942041 L45.15,38.9942041 Z M52.5,44.9934663 C50.0145,44.9934663 48,42.9788783 48,40.4942697 C48,38.0096611 50.0145,35.9950731 52.5,35.9950731 C54.9855,35.9950731 57,38.0096611 57,40.4942697 C56.997,42.9778782 54.984,44.9909662 52.5,44.9934663 Z M67.5,38.9942041 L59.85,38.9942041 C59.247,36.0490754 56.9455,33.7479749 54,33.1449485 L54,23.9965487 L69,23.9965487 L69,37.4946386 C68.999,38.3226748 68.328,38.9932041 67.5,38.9942041 Z" id="Shape" fill="#8075F2"></path>
                </g>
            </g>
        </g>
    </g>
</svg>