<?xml version="1.0" encoding="UTF-8"?>
<svg width="398px" height="254px" viewBox="0 0 398 254" version="1.1" xmlns="http://www.w3.org/2000/svg" xmlns:xlink="http://www.w3.org/1999/xlink">
    <!-- Generator: Sketch 49.3 (51167) - http://www.bohemiancoding.com/sketch -->
    <title>view@2x</title>
    <desc>Created with Sketch.</desc>
    <defs>
        <filter x="-51.9%" y="-91.2%" width="203.7%" height="374.5%" filterUnits="objectBoundingBox" id="filter-1">
            <feOffset dx="0" dy="40" in="SourceAlpha" result="shadowOffsetOuter1"></feOffset>
            <feGaussianBlur stdDeviation="24" in="shadowOffsetOuter1" result="shadowBlurOuter1"></feGaussianBlur>
            <feColorMatrix values="0 0 0 0 0   0 0 0 0 0   0 0 0 0 0  0 0 0 0.0661514946 0" type="matrix" in="shadowBlurOuter1" result="shadowMatrixOuter1"></feColorMatrix>
            <feMerge>
                <feMergeNode in="shadowMatrixOuter1"></feMergeNode>
                <feMergeNode in="SourceGraphic"></feMergeNode>
            </feMerge>
        </filter>
        <rect id="path-2" x="0" y="0" width="270" height="102" rx="8"></rect>
        <filter x="-28.0%" y="-67.2%" width="155.9%" height="248.0%" filterUnits="objectBoundingBox" id="filter-3">
            <feOffset dx="0" dy="7" in="SourceAlpha" result="shadowOffsetOuter1"></feOffset>
            <feGaussianBlur stdDeviation="24" in="shadowOffsetOuter1" result="shadowBlurOuter1"></feGaussianBlur>
            <feColorMatrix values="0 0 0 0 0   0 0 0 0 0   0 0 0 0 0  0 0 0 0.1 0" type="matrix" in="shadowBlurOuter1"></feColorMatrix>
        </filter>
    </defs>
    <g id="Page-1" stroke="none" stroke-width="1" fill="none" fill-rule="evenodd">
        <g id="Group-7" transform="translate(-230.000000, 15.000000)">
            <g id="view" filter="url(#filter-1)" transform="translate(294.000000, 26.000000)">
                <g id="Rectangle-6">
                    <use fill="black" fill-opacity="1" filter="url(#filter-3)" xlink:href="#path-2"></use>
                    <use fill="#FFFFFF" fill-rule="evenodd" xlink:href="#path-2"></use>
                </g>
                <text id="Instant-Delivery" font-family="Raleway-SemiBold, Raleway" font-size="18" font-weight="500" fill="#3E396B">
                    <tspan x="124" y="56">Instant Delivery</tspan>
                </text>
                <g id="price" transform="translate(24.000000, 19.000000)" fill-rule="nonzero">
                    <path d="M30.8888889,3 C29.9081616,3.01317681 28.9343555,3.16471011 28,3.44867034 C32.271043,4.65434835 35.2063036,8.38404408 35.2222222,12.625 C35.2215301,13.0855295 35.1806953,13.5454001 35.1011021,14 L40.8788798,14 C40.9591652,13.5454001 40.9993079,13.0855295 41,12.625 C40.993771,7.31145184 36.4701059,3.00592956 30.8888889,3 Z" id="Shape" fill="#E8E5FE"></path>
                    <path d="M19,18 C18.5311535,16.7115349 18.2554068,15.3647411 18.180484,14 C16.3128218,15.1531127 14.5764676,16.4939241 13,18 L19,18 Z" id="Shape" fill="#E8E5FE"></path>
                    <path d="M43.1668591,10 C43.356435,10.7244101 43.4867685,11.4623606 43.5564655,12.2064043 C52.1396554,15.8216848 57.8269335,23.9005503 58.1816915,32.9814036 C58.1816915,45.4148541 46.6795897,55.669658 32,56.8788136 C32.9569403,56.9573478 33.927123,57 34.9091543,57 C50.949927,57 64,46.2252456 64,32.9807266 C64,22.1118666 55.1875068,12.949771 43.1668591,10 Z" id="Shape" fill="#E8E5FE"></path>
                    <path d="M68.7181571,24.9804883 L63.689123,23.9797635 C63.0189934,22.2511773 62.15837,20.6018096 61.1229006,19.0621288 L62.481529,2.82709596 C62.481529,2.82709596 51.5186158,3.93953899 46.2820796,7.80295952 C44.4975617,7.1488999 42.6620188,6.64312087 40.7938197,6.28900784 C37.2567596,0.24741979 29.4682881,-1.79668582 23.3976616,1.72345497 C20.3402375,3.49672844 18.1624862,6.45692377 17.3889457,9.89378368 C12.5735367,12.4531474 8.58881642,16.3219846 5.89809272,21.0493597 L2.21816238,18.6078079 C1.56980342,18.1690598 0.686728989,18.3362987 0.245872109,18.9815563 C-0.19498477,19.6268138 -0.0269421017,20.5056642 0.621416859,20.9444122 C0.62890054,20.9491518 0.635703887,20.9538914 0.643187569,20.9586309 L4.67280994,23.6317442 C3.48970792,26.4423048 2.87060335,29.4546353 2.84883264,32.5001427 C2.95156318,39.7997461 6.24914542,46.6917471 11.878915,51.3724036 L11.878915,59.3477332 C11.878915,62.4690736 14.4213257,65 17.558349,65 L19.375523,65 C22.5118659,65 25.054957,62.4697507 25.054957,59.3477332 C25.054957,59.0362762 25.0291042,58.7254963 24.9773988,58.4181018 L24.9358984,58.1709675 C31.1174194,59.7912208 37.621419,59.7370544 43.7750463,58.0145619 L43.7076932,58.4181018 C43.1919995,61.4974633 45.2819876,64.4095859 48.3754695,64.9228128 C48.6843414,64.9742709 48.9959347,65 49.3082083,65 L51.122661,65 C54.2590039,65 56.802095,62.4697507 56.802095,59.3477332 L56.802095,50.8889682 C60.6527893,47.4683582 63.3890954,42.9813467 64.6592803,38.0020977 L68.7174767,37.1943409 C70.0448097,36.9302795 71.00068,35.7697638 70.9999996,34.4223739 L70.9999996,27.7531323 C71.00068,26.4050653 70.0454901,25.2452267 68.7181571,24.9804883 Z M59.3553911,6.13327936 L58.5974982,15.1831354 C58.0192137,14.8520432 57.4592983,14.5175655 56.8939402,14.1830878 C54.6733277,12.1565862 52.1683354,10.4625312 49.457882,9.15305776 C52.5983069,7.68921002 55.9299059,6.6729124 59.3553911,6.13327936 Z M29.8254638,2.82709596 C35.3116828,2.83318968 39.7583503,7.25790984 39.7644733,12.7185629 C39.763793,13.1918421 39.7236532,13.6644442 39.6454147,14.1316296 L20.0068735,14.1316296 C19.9279547,13.6644442 19.887815,13.1918421 19.8871346,12.7185629 C19.8932577,7.25790984 24.3392449,2.83318968 29.8254638,2.82709596 Z M22.1751002,58.8825789 C22.4329471,60.4222597 21.3886333,61.8786595 19.8415522,62.135273 C19.6877966,62.1610021 19.5313196,62.1738666 19.375523,62.1738666 L17.558349,62.1738666 C15.9908579,62.1718353 14.720673,60.9077263 14.718632,59.3477332 L14.718632,53.5404149 C16.9480888,55.0611374 19.3591949,56.2988403 21.8968433,57.2264404 L22.1751002,58.8825789 Z M53.962378,59.3477332 C53.960337,60.9077263 52.6901521,62.1718353 51.122661,62.1738666 L49.3082083,62.1738666 C47.7400369,62.1738666 46.4684913,60.9090805 46.4684913,59.3484102 C46.4684913,59.1926818 46.4814177,59.0369533 46.5072704,58.8825789 L46.8229457,56.9982643 C49.3524301,56.0374873 51.7512902,54.7652533 53.9630583,53.2106768 L53.9630583,59.3477332 L53.962378,59.3477332 Z M34.0850393,56.5215997 C18.4271364,56.5215997 5.68854964,45.7458658 5.68854964,32.5001427 C5.92258477,24.5803338 10.2372674,17.3382822 17.1079674,13.3353831 C17.1739599,14.5703777 17.4175197,15.7904765 17.8298025,16.957086 L41.8218054,16.957086 C42.3252531,15.5995399 42.5899033,14.1654837 42.60351,12.7178859 C42.5892229,11.6359114 42.434787,10.5593537 42.1449644,9.51664992 C53.8793771,12.466689 62.481529,21.6296176 62.481529,32.5001427 C62.481529,45.7458658 49.7429422,56.5215997 34.0850393,56.5215997 Z M65.172933,35.0182046 C65.481805,32.3538934 65.3055983,29.6550511 64.6511163,27.0530312 L68.1602826,27.7524552 L68.1602826,34.4216968 L65.172933,35.0182046 Z" id="Shape" fill="#8075F2"></path>
                    <circle id="Oval" fill="#8075F2" cx="53.5" cy="23.5" r="1.5"></circle>
                </g>
            </g>
        </g>
    </g>
</svg>