<?xml version="1.0" encoding="UTF-8"?>
<svg width="451px" height="570px" viewBox="0 0 451 570" version="1.1" xmlns="http://www.w3.org/2000/svg" xmlns:xlink="http://www.w3.org/1999/xlink">
    <!-- Generator: Sketch 49.3 (51167) - http://www.bohemiancoding.com/sketch -->
    <title>Instagram View@2x</title>
    <desc>Created with Sketch.</desc>
    <defs>
        <rect id="path-1" x="0" y="0" width="355" height="474" rx="10"></rect>
        <filter x="-25.9%" y="-11.0%" width="151.8%" height="138.8%" filterUnits="objectBoundingBox" id="filter-2">
            <feOffset dx="0" dy="40" in="SourceAlpha" result="shadowOffsetOuter1"></feOffset>
            <feGaussianBlur stdDeviation="24" in="shadowOffsetOuter1" result="shadowBlurOuter1"></feGaussianBlur>
            <feColorMatrix values="0 0 0 0 0   0 0 0 0 0   0 0 0 0 0  0 0 0 0.0661514946 0" type="matrix" in="shadowBlurOuter1"></feColorMatrix>
        </filter>
        <linearGradient x1="97.2200046%" y1="2.68528005%" x2="8.47827327%" y2="95.8941684%" id="linearGradient-3">
            <stop stop-color="#FF5571" offset="0%"></stop>
            <stop stop-color="#FF92A4" offset="100%"></stop>
        </linearGradient>
        <rect id="path-4" x="22" y="105" width="309" height="202"></rect>
        <filter x="-30.7%" y="-27.2%" width="161.5%" height="194.1%" filterUnits="objectBoundingBox" id="filter-5">
            <feOffset dx="0" dy="40" in="SourceAlpha" result="shadowOffsetOuter1"></feOffset>
            <feGaussianBlur stdDeviation="25" in="shadowOffsetOuter1" result="shadowBlurOuter1"></feGaussianBlur>
            <feColorMatrix values="0 0 0 0 0   0 0 0 0 0   0 0 0 0 0  0 0 0 0.1 0" type="matrix" in="shadowBlurOuter1"></feColorMatrix>
        </filter>
        <path d="M265.999742,349.421855 C254.140652,349.421855 243.385906,355.910001 235.450113,366.449051 C234.802711,367.312148 234.802711,368.518547 235.450113,369.382279 C243.385906,379.933075 254.140652,386.421855 265.999742,386.421855 C277.859467,386.421855 288.613737,379.933075 296.54953,369.394659 C297.197408,368.530927 297.197408,367.325163 296.54953,366.461431 C288.613737,355.910001 277.859467,349.421855 265.999742,349.421855 Z M266.8503,380.949332 C258.97847,381.444685 252.47731,374.955904 252.972662,367.0709 C253.378816,360.56974 258.648023,355.300532 265.149184,354.894378 C273.021649,354.399026 279.522175,360.887172 279.027457,368.77281 C278.608289,375.260956 273.339081,380.530164 266.8503,380.949332 Z M266.45732,374.93051 C262.215956,375.196993 258.711827,371.705245 258.99085,367.464674 C259.206545,363.960545 262.05105,361.129054 265.555179,360.900186 C269.796543,360.633702 273.300672,364.125451 273.021649,368.366022 C272.79294,371.883324 269.949069,374.714656 266.45732,374.93051 Z" id="path-6"></path>
        <filter x="-153.1%" y="-148.6%" width="406.1%" height="613.5%" filterUnits="objectBoundingBox" id="filter-7">
            <feOffset dx="0" dy="40" in="SourceAlpha" result="shadowOffsetOuter1"></feOffset>
            <feGaussianBlur stdDeviation="25" in="shadowOffsetOuter1" result="shadowBlurOuter1"></feGaussianBlur>
            <feColorMatrix values="0 0 0 0 0   0 0 0 0 0   0 0 0 0 0  0 0 0 0.15 0" type="matrix" in="shadowBlurOuter1"></feColorMatrix>
        </filter>
        <circle id="path-8" cx="23.667" cy="23.667" r="23.667"></circle>
        <filter x="-200.7%" y="-116.2%" width="501.4%" height="501.4%" filterUnits="objectBoundingBox" id="filter-9">
            <feOffset dx="0" dy="40" in="SourceAlpha" result="shadowOffsetOuter1"></feOffset>
            <feGaussianBlur stdDeviation="25" in="shadowOffsetOuter1" result="shadowBlurOuter1"></feGaussianBlur>
            <feColorMatrix values="0 0 0 0 0   0 0 0 0 0   0 0 0 0 0  0 0 0 0.15 0" type="matrix" in="shadowBlurOuter1"></feColorMatrix>
        </filter>
    </defs>
    <g id="Page-1" stroke="none" stroke-width="1" fill="none" fill-rule="evenodd">
        <g id="BUY-INSTAGRAM-LIKES-Copy-2" transform="translate(-392.000000, -140.000000)">
            <g id="Instagram-View" transform="translate(440.000000, 148.000000)">
                <g id="Rectangle-2">
                    <use fill="black" fill-opacity="1" filter="url(#filter-2)" xlink:href="#path-1"></use>
                    <use fill="#FFFFFF" fill-rule="evenodd" xlink:href="#path-1"></use>
                </g>
                <rect id="Rectangle-5" fill="#B4F8FF" x="22" y="386" width="151" height="12" rx="6"></rect>
                <rect id="Rectangle-5-Copy" fill="#D5E5E7" x="22" y="410" width="210" height="10" rx="5"></rect>
                <rect id="Rectangle-5-Copy-3" fill="#D5E5E7" x="72" y="343" width="50" height="10" rx="5"></rect>
                <rect id="Rectangle-5-Copy-2" fill="#D5E5E7" x="22" y="425" width="80" height="10" rx="5"></rect>
                <g id="Rectangle-6">
                    <use fill="black" fill-opacity="1" filter="url(#filter-5)" xlink:href="#path-4"></use>
                    <use fill="url(#linearGradient-3)" fill-rule="evenodd" xlink:href="#path-4"></use>
                </g>
                <g id="Fill-1" opacity="0.429857337">
                    <use fill="black" fill-opacity="1" filter="url(#filter-7)" xlink:href="#path-6"></use>
                    <use fill="#535BFF" fill-rule="evenodd" xlink:href="#path-6"></use>
                </g>
                <g id="Group-Copy-3" transform="translate(22.000000, 40.000000)">
                    <g id="Oval" fill-rule="nonzero">
                        <use fill="black" fill-opacity="1" filter="url(#filter-9)" xlink:href="#path-8"></use>
                        <use fill="#535BFF" fill-rule="evenodd" xlink:href="#path-8"></use>
                    </g>
                    <path d="M27.3157936,25.2599645 C27.33372,25.2464487 27.3510772,25.2322214 27.3690035,25.218421 C27.3961775,25.2445991 27.4229248,25.2709195 27.4545092,25.2933986 C27.4653219,25.3012235 27.4132502,25.2881345 27.3157936,25.2599645 M20.4256827,25.2877077 C20.4534258,25.2680741 20.4764739,25.2444568 20.5008025,25.2218355 C20.5134647,25.2316523 20.5259847,25.2420382 20.5387892,25.2515705 C20.458263,25.2804518 20.4162927,25.2938254 20.4256827,25.2877077 M35.8786014,31.1587213 L35.8786014,31.1410795 C35.8786014,31.0939873 35.8727683,31.0467529 35.8727683,30.9941121 C35.8377692,29.8291855 35.7623649,27.1053801 33.2391635,26.2348152 C33.221664,26.2288397 33.1984736,26.2231488 33.1809741,26.2171734 C30.8987822,25.6283078 28.9519264,24.3935255 28.4703343,24.071563 C30.3198758,21.4857618 29.9869583,17.5596121 29.9485447,17.165233 C29.8031423,14.0294066 28.3381632,12.5295708 27.1288477,11.8294482 C26.2278364,11.3058857 25.1754474,11.0237595 24.0011308,11 L23.9022515,11 C23.2569038,11 21.9895411,11.1058507 20.7743924,11.8061155 C19.5535527,12.5058113 18.065241,14.0059317 17.9198385,17.165233 C17.881425,17.5597544 17.5485075,21.4874691 19.3993294,24.0732703 C18.9026564,24.4056187 16.9751497,25.6264583 14.6990755,26.2110557 C14.6758851,26.2171734 14.6585279,26.2231488 14.6410284,26.2288397 C12.117827,27.1053801 12.0422804,29.8291855 12.0074236,30.9879944 C12.0074236,31.0407775 12.0074236,31.0878696 12.0015905,31.1349618 L12.0015905,31.1527459 C11.9957573,31.4586316 11.9899241,33.0293191 12.2979439,33.817366 C12.3562756,33.9704511 12.4608458,34.1000613 12.6002728,34.1882702 C12.7746988,34.3057872 16.9548047,37 23.9487746,37 C30.9427444,37 35.1228503,34.2998118 35.2972763,34.1882702 C35.4310124,34.1000613 35.5414158,33.9704511 35.5996052,33.817366 C35.8902678,33.03501 35.8844346,31.4643225 35.8786014,31.1587213" id="Fill-1" fill="#FFFFFF"></path>
                    <rect id="Rectangle-5" fill="#B4F8FF" x="62" y="7" width="161" height="12" rx="6"></rect>
                    <rect id="Rectangle-5-Copy" fill="#D5E5E7" x="62" y="27" width="103" height="10" rx="5"></rect>
                </g>
                <path d="M156,188.011094 L156,223.000016 C156,224.65687 157.343146,226.000016 159,226.000016 C159.494407,226.000016 159.98115,225.877824 160.416936,225.64431 L193.065202,208.149849 C194.525606,207.367297 195.075113,205.549022 194.292561,204.088619 C194.013319,203.567497 193.586324,203.140502 193.065202,202.861261 L160.416936,185.3668 C158.956533,184.584248 157.138258,185.133755 156.355706,186.594158 C156.122191,187.029944 156,187.516687 156,188.011094 Z" id="Path-2" fill="#FFFFFF" opacity="0.656136775"></path>
            </g>
        </g>
    </g>
</svg>